#!OML:ASF F:\VICON\USERDATA\INSTALL\rory3\rory3.ASF
:FULLY-SPECIFIED
:DEGREES
1128
root -1.62696 20.2102 3.29664 176.642 164.662 -176.429
lowerback 8.28783 1.37997 -3.99356
upperback 2.41056 1.47114 -1.76399
thorax -2.20072 0.747121 0.271854
lowerneck -6.23497 -0.901219 -9.58717
upperneck 27.8149 -1.3559 7.01826
head 9.91752 -0.800206 4.02185
rclavicle 3.07619e-014 2.78299e-015
rhumerus -34.4939 5.70403 -79.3796
rradius 41.9263
rwrist 15.821
rhand -27.8266 5.98366
rfingers 7.12502
rthumb -1.21844 -23.9926
lclavicle 3.07619e-014 2.78299e-015
lhumerus -36.7366 19.3644 68.2196
lradius 31.2546
lwrist 6.79614
lhand -22.6817 26.8702
lfingers 7.12502
lthumb 3.75044 56.8169
rfemur -14.9617 15.228 15.8323
rtibia 26.9311
rfoot 11.6143 -18.536
rtoes 4.47453
lfemur -20.3171 17.1946 -27.1813
ltibia 67.6256
lfoot -28.0303 23.2935
ltoes -14.8792
1129
root -1.63529 20.1264 3.36971 176.578 164.67 -176.709
lowerback 8.30036 1.39114 -3.66259
upperback 2.30615 1.51059 -1.67172
thorax -2.31176 0.7681 0.176087
lowerneck -6.09722 -0.900729 -9.58253
upperneck 27.7004 -1.35018 6.95921
head 9.84893 -0.803318 3.99577
rclavicle 1.16041e-014 1.19271e-015
rhumerus -34.691 5.56058 -79.255
rradius 41.8123
rwrist 15.8612
rhand -27.6435 6.2005
rfingers 7.12502
rthumb -1.04163 -23.7767
lclavicle 1.16041e-014 1.19271e-015
lhumerus -36.8694 19.4321 67.9783
lradius 31.2192
lwrist 7.00548
lhand -22.5231 26.4278
lfingers 7.12502
lthumb 3.9036 56.3718
rfemur -14.3528 15.098 16.4737
rtibia 26.5392
rfoot 11.8213 -18.9158
rtoes 4.73975
lfemur -20.5816 17.2507 -26.7053
ltibia 68.6089
lfoot -28.5235 23.2891
ltoes -14.006
1130
root -1.6409 20.0449 3.44345 176.619 164.629 -176.793
lowerback 8.24726 1.3975 -3.47052
upperback 2.22766 1.53559 -1.63538
thorax -2.36064 0.781057 0.103673
lowerneck -6.19037 -0.932425 -9.59029
upperneck 27.6714 -1.35796 6.85815
head 9.85804 -0.816548 3.95953
rclavicle 2.94201e-014 -2.38542e-015
rhumerus -34.7727 5.44129 -79.1334
rradius 41.6245
rwrist 15.8025
rhand -27.3779 6.00426
rfingers 7.12502
rthumb -0.78511 -23.974
lclavicle 2.94201e-014 -2.38542e-015
lhumerus -36.9697 19.5234 67.7874
lradius 31.2975
lwrist 7.32917
lhand -22.0591 26.0924
lfingers 7.12502
lthumb 4.3517 56.0277
rfemur -13.8181 14.8382 16.8663
rtibia 26.2418
rfoot 11.5868 -19.0117
rtoes 3.53632
lfemur -20.8753 17.2979 -26.4722
ltibia 69.604
lfoot -28.9791 23.311
ltoes -13.0154
1131
root -1.64394 19.9592 3.52422 176.639 164.611 -176.782
lowerback 8.09596 1.40036 -3.38066
upperback 2.2608 1.55594 -1.61636
thorax -2.24132 0.789344 0.0753221
lowerneck -6.55311 -0.959531 -9.6371
upperneck 27.6917 -1.35318 6.84622
head 9.93601 -0.816188 3.96652
rclavicle 1.9953e-014 5.1684e-015
rhumerus -34.7765 5.28356 -79.0022
rradius 41.5634
rwrist 15.7388
rhand -27.2785 5.75925
rfingers 7.12502
rthumb -0.689082 -24.2194
lclavicle 1.9953e-014 5.1684e-015
lhumerus -36.8903 19.606 67.7239
lradius 31.3232
lwrist 7.53155
lhand -21.7479 25.9545
lfingers 7.12502
lthumb 4.65224 55.8835
rfemur -13.1498 14.4485 17.2064
rtibia 26.0385
rfoot 10.4728 -18.5367
rtoes -0.290981
lfemur -21.0644 17.3354 -26.3173
ltibia 70.6225
lfoot -29.5991 23.2354
ltoes -11.5893
1132
root -1.65183 19.8632 3.60582 176.605 164.631 -176.88
lowerback 7.96455 1.38305 -3.27113
upperback 2.27569 1.55044 -1.5352
thorax -2.15245 0.78513 0.101898
lowerneck -6.73988 -0.943735 -9.70199
upperneck 27.6428 -1.30567 6.8581
head 9.9505 -0.796818 3.98635
rclavicle -1.60643e-014 1.78906e-015
rhumerus -34.8169 5.28254 -78.8667
rradius 41.5273
rwrist 15.5965
rhand -27.2366 5.74974
rfingers 7.12502
rthumb -0.648608 -24.229
lclavicle -1.60643e-014 1.78906e-015
lhumerus -36.8933 19.637 67.6734
lradius 31.2997
lwrist 7.62783
lhand -21.8089 25.8298
lfingers 7.12502
lthumb 4.59331 55.76
rfemur -12.5004 14.2052 17.6796
rtibia 25.9927
rfoot 8.23169 -18.0086
rtoes -4.52184
lfemur -21.2851 17.4002 -26.0144
ltibia 71.6959
lfoot -30.2658 23.0593
ltoes -10.0999
1133
root -1.65914 19.7607 3.68514 176.567 164.648 -177.049
lowerback 7.90341 1.35297 -3.05461
upperback 2.176 1.52892 -1.44868
thorax -2.2181 0.775017 0.0720625
lowerneck -6.59191 -0.895009 -9.80903
upperneck 27.4971 -1.25284 6.94463
head 9.86412 -0.774014 4.03591
rclavicle 5.44297e-014 -1.8487e-014
rhumerus -35.0705 5.30282 -78.7378
rradius 41.53
rwrist 15.4514
rhand -27.0162 5.78319
rfingers 7.12502
rthumb -0.435737 -24.1961
lclavicle 5.44297e-014 -1.8487e-014
lhumerus -37.1361 19.5784 67.535
lradius 31.3003
lwrist 7.59378
lhand -21.7978 25.6405
lfingers 7.12502
lthumb 4.60402 55.5704
rfemur -11.9545 13.7258 18.2328
rtibia 26.0944
rfoot 6.1419 -17.1885
rtoes -6.68513
lfemur -21.5428 17.4768 -25.6426
ltibia 72.7799
lfoot -30.8411 22.8336
ltoes -8.55491
1134
root -1.66167 19.6623 3.76016 176.562 164.577 -177.037
lowerback 7.921 1.31962 -2.91819
upperback 2.06596 1.49116 -1.44618
thorax -2.33746 0.757539 -0.000107671
lowerneck -6.37216 -0.88268 -9.77112
upperneck 27.2673 -1.23963 6.87076
head 9.73706 -0.77157 3.99518
rclavicle -4.23536e-014 1.72943e-014
rhumerus -35.3728 5.19279 -78.6161
rradius 41.5864
rwrist 15.4698
rhand -26.9909 5.7605
rfingers 7.12502
rthumb -0.411332 -24.2189
lclavicle -4.23536e-014 1.72943e-014
lhumerus -37.3725 19.4373 67.4201
lradius 31.3295
lwrist 7.6146
lhand -22.0067 25.7014
lfingers 7.12502
lthumb 4.40234 55.6357
rfemur -11.4432 12.9837 18.517
rtibia 26.1807
rfoot 5.1911 -15.9778
rtoes -7.02939
lfemur -21.7541 17.3972 -25.5162
ltibia 73.8385
lfoot -31.3248 22.5547
ltoes -6.38661
1135
root -1.66357 19.586 3.83378 176.57 164.557 -177.123
lowerback 7.9215 1.27975 -2.74048
upperback 1.99727 1.45218 -1.36772
thorax -2.40572 0.738323 -0.0158257
lowerneck -6.38703 -0.859035 -9.75025
upperneck 27.1411 -1.17735 6.75612
head 9.68882 -0.750793 3.95251
rclavicle 2.54817e-014 7.35503e-015
rhumerus -35.4234 5.20826 -78.4775
rradius 41.5252
rwrist 15.3431
rhand -26.854 5.62718
rfingers 7.12502
rthumb -0.279102 -24.3524
lclavicle 2.54817e-014 7.35503e-015
lhumerus -37.5496 19.2861 67.4683
lradius 31.4707
lwrist 7.84426
lhand -22.0389 26.1006
lfingers 7.12502
lthumb 4.37118 56.0355
rfemur -11.2898 12.8378 18.7275
rtibia 26.3939
rfoot 4.1572 -15.0981
rtoes -7.39464
lfemur -21.9419 17.3343 -25.3016
ltibia 74.7805
lfoot -31.7861 22.2382
ltoes -3.88901
1136
root -1.66766 19.4817 3.9108 176.467 164.635 -177.364
lowerback 7.9446 1.28591 -2.409
upperback 1.96789 1.4879 -1.26888
thorax -2.44415 0.755012 -0.104082
lowerneck -6.48464 -0.845365 -9.73657
upperneck 27.0377 -1.14785 6.74689
head 9.66729 -0.734179 3.94699
rclavicle 1.60519e-014 -2.78299e-015
rhumerus -35.4446 5.08769 -78.3418
rradius 41.3547
rwrist 15.0762
rhand -26.8208 5.864
rfingers 7.12502
rthumb -0.247035 -24.1156
lclavicle 1.60519e-014 -2.78299e-015
lhumerus -37.5735 19.1919 67.4916
lradius 31.4506
lwrist 7.93415
lhand -21.9593 26.2519
lfingers 7.12502
lthumb 4.44807 56.1852
rfemur -10.9019 12.4548 19.248
rtibia 26.7149
rfoot 2.57943 -13.9214
rtoes -10.6739
lfemur -22.1157 17.3238 -24.879
ltibia 75.8222
lfoot -32.1832 21.9616
ltoes -0.864761
1137
root -1.67057 19.4071 3.98906 176.266 164.757 -177.71
lowerback 8.02203 1.28451 -1.95047
upperback 1.96058 1.52292 -1.18121
thorax -2.48607 0.770535 -0.276065
lowerneck -6.52509 -0.809159 -9.60276
upperneck 26.8799 -1.09928 6.69057
head 9.61228 -0.701817 3.90353
rclavicle -2.69974e-014 9.54166e-015
rhumerus -35.5162 4.91768 -78.2756
rradius 41.2734
rwrist 14.873
rhand -27.0972 6.31755
rfingers 7.12502
rthumb -0.514005 -23.6616
lclavicle -2.69974e-014 9.54166e-015
lhumerus -37.5457 19.1021 67.4588
lradius 31.3039
lwrist 7.8647
lhand -22.1793 26.3696
lfingers 7.12502
lthumb 4.2356 56.3072
rfemur -10.8069 12.5982 19.7695
rtibia 27.2324
rfoot 0.546834 -13.608
rtoes -10.3179
lfemur -22.0923 17.3664 -24.298
ltibia 76.7139
lfoot -32.4354 21.6287
ltoes 2.32251
